<svg xmlns="http://www.w3.org/2000/svg" width="1024" height="1024" viewBox="0 0 1024 1024" role="img" aria-label="Lakehouse Migration Utility Icon">
  <defs>
    <linearGradient id="bg" x1="0" y1="0" x2="1" y2="1">
      <stop offset="0%" stop-color="#03045e"/>
      <stop offset="100%" stop-color="#171c21"/>
    </linearGradient>
    <linearGradient id="flow" x1="0" y1="0" x2="1" y2="0">
      <stop offset="0%" stop-color="#00b4d8"/>
      <stop offset="100%" stop-color="#00dd92"/>
    </linearGradient>
  </defs>

  <rect x="64" y="64" width="896" height="896" rx="212" fill="url(#bg)"/>

  <!-- Source stacks (warehouse/tables) -->
  <rect x="190" y="286" width="220" height="46" rx="23" fill="#caf0f8" opacity="0.95"/>
  <rect x="190" y="352" width="220" height="46" rx="23" fill="#90e0ef" opacity="0.95"/>
  <rect x="190" y="418" width="220" height="46" rx="23" fill="#00b4d8" opacity="0.95"/>

  <!-- Migration arrow -->
  <path d="M430 374 H646" stroke="url(#flow)" stroke-width="44" stroke-linecap="round"/>
  <path d="M622 316 L730 374 L622 432" fill="none" stroke="#00dd92" stroke-width="44" stroke-linecap="round" stroke-linejoin="round"/>

  <!-- Lakehouse structure -->
  <path d="M630 520 L770 420 L910 520" fill="none" stroke="#f2f2f2" stroke-width="36" stroke-linecap="round" stroke-linejoin="round"/>
  <rect x="664" y="530" width="212" height="168" rx="22" fill="#f2f2f2"/>
  <rect x="748" y="590" width="44" height="108" rx="12" fill="#03045e"/>

  <!-- Water waves -->
  <path d="M612 754 C654 730 698 730 740 754 C782 778 826 778 868 754" fill="none" stroke="#00b4d8" stroke-width="22" stroke-linecap="round"/>
  <path d="M612 802 C654 778 698 778 740 802 C782 826 826 826 868 802" fill="none" stroke="#90e0ef" stroke-width="16" stroke-linecap="round"/>
</svg>
