<svg xmlns="http://www.w3.org/2000/svg" width="1024" height="1024" viewBox="0 0 1024 1024" role="img" aria-label="Dataflow Lakehouse Icon">
  <defs>
    <linearGradient id="bg" x1="0" y1="0" x2="1" y2="1">
      <stop offset="0%" stop-color="#03045e"/>
      <stop offset="100%" stop-color="#171c21"/>
    </linearGradient>
  </defs>

  <rect x="64" y="64" width="896" height="896" rx="212" fill="url(#bg)"/>

  <!-- Source tiles -->
  <rect x="176" y="300" width="220" height="120" rx="24" fill="#90e0ef"/>
  <rect x="176" y="440" width="220" height="120" rx="24" fill="#00b4d8"/>

  <!-- Flow lane -->
  <path d="M430 430 C512 430 560 430 640 430" fill="none" stroke="#00dd92" stroke-width="40" stroke-linecap="round"/>
  <path d="M610 368 L728 430 L610 492" fill="none" stroke="#00dd92" stroke-width="40" stroke-linecap="round" stroke-linejoin="round"/>

  <!-- Lakehouse block -->
  <path d="M658 610 L770 528 L882 610" fill="none" stroke="#f2f2f2" stroke-width="32" stroke-linecap="round" stroke-linejoin="round"/>
  <rect x="680" y="622" width="180" height="150" rx="20" fill="#f2f2f2"/>
  <rect x="748" y="680" width="44" height="92" rx="10" fill="#03045e"/>

  <!-- Lake lines -->
  <path d="M650 820 C690 800 730 800 770 820 C810 840 850 840 890 820" fill="none" stroke="#00b4d8" stroke-width="16" stroke-linecap="round"/>
</svg>
