<?xml version="1.0" encoding="UTF-8"?>
<svg id="Layer_1" xmlns="http://www.w3.org/2000/svg" xmlns:xlink="http://www.w3.org/1999/xlink" version="1.1" viewBox="0 0 5986.98 561.08">
  <!-- Generator: Adobe Illustrator 30.2.1, SVG Export Plug-In . SVG Version: 2.1.1 Build 1)  -->
  <defs>
    <style>
      .st0 {
        fill: url(#linear-gradient);
      }

      .st1 {
        fill: #03045e;
      }
    </style>
    <linearGradient id="linear-gradient" x1="100" y1="215.05" x2="920.38" y2="215.05" gradientTransform="translate(0 564) scale(1 -1)" gradientUnits="userSpaceOnUse">
      <stop offset="0" stop-color="#0077b6"/>
      <stop offset=".49" stop-color="#00b4d8"/>
      <stop offset="1" stop-color="#90e0ef"/>
    </linearGradient>
  </defs>
  <path class="st1" d="M944.87,381.48l67.77,30.6-9.57,12.01c-43.96,55.29-109.58,87-180.11,87-126.93,0-230.25-103.28-230.25-230.25s103.32-230.34,230.25-230.34c70.49,0,136.15,31.75,180.19,87.04l9.57,12.05-36.94,16.71c-18.85,8.51-30.01,11.86-33.47,10.05l-1.88-1-1.39-1.52c-29.76-32.39-72.04-50.98-116-50.98-87.12,0-157.97,70.89-157.97,157.97s70.85,157.89,157.89,157.89h4.47c42.32-1.2,82.81-19.59,111.61-50.9l5.82-6.34h0Z"/>
  <path class="st1" d="M1393.84,381.48l67.73,30.6-9.53,12.01c-43.96,55.29-109.62,87-180.11,87-126.97,0-230.25-103.28-230.25-230.25s103.28-230.34,230.25-230.34c70.49,0,136.15,31.75,180.19,87.04l9.53,12.05-36.94,16.71c-18.83,8.51-29.97,11.86-33.43,10.05l-1.88-1-1.44-1.52c-29.72-32.39-72-50.98-115.96-50.98-87.12,0-157.97,70.89-157.97,157.97s70.85,157.89,157.89,157.89h4.47c42.32-1.2,82.77-19.59,111.58-50.9l5.86-6.34h0Z"/>
  <polygon class="st1" points="1565.65 122.91 1565.65 244.61 1780.02 244.61 1780.02 316.97 1565.65 316.97 1565.65 438.72 1845.21 438.72 1845.21 511.08 1493.29 511.08 1493.29 50.5 1845.21 50.5 1845.21 122.91 1565.65 122.91"/>
  <polygon class="st1" points="2162.38 439 2162.38 511.08 1885.98 511.08 1885.98 50.5 1957.98 50.5 1957.98 439 2162.38 439"/>
  <polygon class="st1" points="2274.19 122.91 2274.19 244.61 2488.53 244.61 2488.53 316.97 2274.19 316.97 2274.19 438.72 2553.75 438.72 2553.75 511.08 2201.83 511.08 2201.83 50.5 2553.75 50.5 2553.75 122.91 2274.19 122.91"/>
  <path class="st1" d="M2817.51,330.7c59.92-17.39,103.24-73.56,103.24-137.26,0-78.78-64.1-142.93-142.85-142.93h-183.38v460.58h72.28v-174.72h68.85l109.58,174.72h85.37l-113.09-180.39h0ZM2848.42,193.43c0,38.89-31.63,70.57-70.53,70.57h-111.09V122.83h111.09c38.89,0,70.53,31.67,70.53,70.61h0Z"/>
  <path class="st1" d="M3200.94,50.5h-70.09l-179.67,460.58h77.51l4.91-12.61c20.86-37.66,67.93-104.59,150.95-135.67,17.79-6.62,36.3-11.29,55.13-13.92,1.6,4.27,3.75,9.77,6.58,17.03,5.94,15.32,13.92,35.7,21.9,56.09,15.96,40.77,31.95,81.46,31.95,81.46l2.95,7.62h77.59l-179.71-460.58ZM3159.17,295.11c-19.9,7.5-38.97,16.83-57.04,27.92l63.78-163.51,46.95,120.39c-16.91,3.07-34.67,8.1-53.69,15.2Z"/>
  <polygon class="st1" points="3727.26 50.5 3727.26 122.83 3569.18 122.83 3569.18 511.08 3496.85 511.08 3496.85 122.83 3338.8 122.83 3338.8 50.5 3727.26 50.5"/>
  <polygon class="st1" points="3838.92 122.91 3838.92 244.61 4053.29 244.61 4053.29 316.97 3838.92 316.97 3838.92 438.72 4118.47 438.72 4118.47 511.08 3766.56 511.08 3766.56 50.5 4118.47 50.5 4118.47 122.91 3838.92 122.91"/>
  <path class="st1" d="M4972.92,50.5h-70.09l-179.67,460.58h77.51l4.91-12.61c20.86-37.66,67.93-104.59,150.95-135.67,17.79-6.62,36.3-11.29,55.13-13.92,1.6,4.27,3.75,9.77,6.58,17.03,5.94,15.32,13.92,35.7,21.9,56.09,15.96,40.77,31.95,81.46,31.95,81.46l2.95,7.62h77.59l-179.71-460.58ZM4931.15,295.11c-19.91,7.5-38.97,16.83-57.05,27.92l63.79-163.51,46.95,120.39c-16.91,3.07-34.67,8.1-53.69,15.2h0Z"/>
  <polygon class="st1" points="5499.24 50.5 5499.24 122.83 5341.15 122.83 5341.15 511.08 5268.83 511.08 5268.83 122.83 5110.78 122.83 5110.78 50.5 5499.24 50.5"/>
  <path class="st1" d="M5707.27,50.5h-70.09l-179.71,460.58h77.55l4.91-12.61c20.86-37.66,67.93-104.59,150.91-135.67,17.83-6.62,36.34-11.29,55.17-13.92,1.6,4.27,3.75,9.77,6.54,17.03,5.98,15.32,13.96,35.7,21.94,56.09,15.96,40.77,31.95,81.46,31.95,81.46l2.95,7.62h77.59l-179.71-460.58ZM5665.51,295.11c-19.91,7.5-39.01,16.83-57.04,27.92l63.78-163.51,46.95,120.39c-16.91,3.07-34.67,8.1-53.69,15.2Z"/>
  <polygon class="st1" points="602.17 511.07 524.59 511.07 387.4 144.19 250.22 511.07 172.67 511.07 352.38 50.49 422.47 50.49 602.17 511.07"/>
  <path class="st0" d="M832.06,246.44c30.1,0,59.58.79,88.32,2.22-37.92-6.34-79.02-11.16-122.4-14.21.28,0,.57,0,.85,0-68.91-7.75-147.86-10.07-231.57-5.58-262.25,14.05-471.41,89.24-467.2,167.94,1.12,20.85,17.15,39.84,44.94,56.24-16.13-13.37-25.26-28.06-26.1-43.79-3.13-58.45,146.86-123.53,311.03-155.66-108.45,26.15-216,74.81-216,119.81,0,37.92,49.38,72.35,129.77,97.91-29.14-19.78-45.44-41.65-45.44-64.67,0-88.47,238.99-160.19,533.8-160.19h0Z"/>
  <path class="st1" d="M4720.64,289.27c0,122.39-99.61,221.99-222.03,221.99h-161.32V185.91h72.6v251.27l88.72-.08c81.54,0,147.88-66.3,147.88-147.84s-66.34-147.88-147.88-147.88h-118.88c-9.49,9.02-22.3,14.56-36.42,14.56-29.2,0-52.9-23.66-52.9-52.86s23.7-52.87,52.9-52.87c15.4,0,29.24,6.58,38.89,17.07h116.4c122.43,0,222.03,99.57,222.03,221.99h.01Z"/>
</svg>